<svg xmlns="http://www.w3.org/2000/svg" width="278" height="55" fill="none" viewBox="0 0 278 55"><path fill="#fff" d="M277.996 9.21c.026-5.081-4.108-9.21-9.216-9.21H53.651c-5.09 0-9.217 4.104-9.217 9.167s4.127 9.166 9.217 9.166h14.096c5.09 0 9.217 4.104 9.217 9.167s-4.127 9.167-9.217 9.167H9.217C4.127 36.667 0 40.77 0 45.833S4.126 55 9.217 55h215.089c5.09 0 9.216-4.104 9.216-9.167s-4.126-9.166-9.216-9.166H210.21c-5.091 0-9.217-4.104-9.217-9.167s4.126-9.167 9.217-9.167h58.573c5.073 0 9.192-4.078 9.217-9.124z"/></svg>