<svg xmlns="http://www.w3.org/2000/svg" width="156" height="167" fill="none"><g clip-path="url(#a)"><path fill="#fff" d="m81.556 120.84 18.398-2.191-18.463-2.197 8.155-9.539-9.461 8.161-2.181-18.475-2.189 18.475-9.461-8.161 8.155 9.539-18.463 2.197 18.398 2.191-8.09 9.465 9.454-8.154 2.196 18.549 2.188-18.549 9.454 8.154z"/><path fill="#fff" fill-rule="evenodd" d="M123.093 118.679V53.904c0-12.01-4.75-23.527-13.206-32.019A45 45 0 0 0 78.004 8.623 45 45 0 0 0 46.12 21.885a45.38 45.38 0 0 0-13.207 32.019v64.775l-8.593 10.38V53.904A54.02 54.02 0 0 1 40.263 16.19 53.57 53.57 0 0 1 78 .62a53.57 53.57 0 0 1 37.738 15.569 54.03 54.03 0 0 1 15.941 37.714v75.148l-8.586-10.373Z" clip-rule="evenodd"/><path fill="#F08D5C" d="M29.712 146.619v-.439H24.35v.439l2.189.872-4.173 12.374-4.377-11.209a3.99 3.99 0 0 0-3.917-2.476h-3.494v.439l1.597.294 2.145 5.465-2.553 7.509-4.377-11.209a3.74 3.74 0 0 0-1.386-1.773 4.26 4.26 0 0 0-2.524-.732H0v.439l1.598.293 7.82 19.941h.875l4.494-13.304 5.215 13.304h.869l6.521-19.362zm4.88 4.953a7.05 7.05 0 0 0-3.047.397 7.1 7.1 0 0 0-4.243 4.258 7.1 7.1 0 0 0-.399 3.059 7.77 7.77 0 0 0 2.036 5.677 7.7 7.7 0 0 0 5.653 2.066c1.025.06 2.05-.09 3.016-.44a7.6 7.6 0 0 0 2.601-1.596 7.68 7.68 0 0 0 2.101-5.707 7.18 7.18 0 0 0-2.073-5.659 7.1 7.1 0 0 0-5.645-2.055m1.94 13.186q-.79 1.627-1.94 1.627c-1.15 0-1.459-.542-1.977-1.627s-.78-2.93-.78-5.501.262-4.396.78-5.502 1.204-1.634 1.977-1.634 1.415.542 1.94 1.634c.526 1.091.81 2.93.81 5.502s-.27 4.439-.81 5.531zm22.454-8.388a4.2 4.2 0 0 0-.73-2.329 5.2 5.2 0 0 0-2.027-1.773 5.9 5.9 0 0 0-2.918-.696 4.36 4.36 0 0 0-3.247 1.304 5.7 5.7 0 0 0-.955 1.311 4 4 0 0 0-.635-1.077 3.45 3.45 0 0 0-2.7-1.106h-2.589v.44l1.744.432v12.813l-1.744.439v.432h8.12v-.432l-1.737-.439V154.92a5 5 0 0 1 .635-1.165 2.48 2.48 0 0 1 1.97-1.165 1.81 1.81 0 0 1 1.51.989c.496.842.728 1.815.663 2.791v7.575c0 1.744.876 2.615 2.612 2.615h3.772v-.432l-1.744-.439zm16.961-7.567c0-1.744-.869-2.623-2.612-2.623H69.57v.44l1.736.439v5.678a4.2 4.2 0 0 0-.897-.586 4.9 4.9 0 0 0-2.437-.579 5.86 5.86 0 0 0-4.668 2.007q-1.707 1.978-1.707 5.707a10.35 10.35 0 0 0 .78 4.22 6.2 6.2 0 0 0 2.116 2.622c.905.596 1.966.91 3.049.901a4.4 4.4 0 0 0 3.217-1.34c.382-.387.704-.829.956-1.312.132.41.348.786.634 1.107a3.44 3.44 0 0 0 2.7 1.076h2.603v-.432l-1.736-.439.03-16.886Zm-4.64 14.849q-.282.611-.664 1.165a2.45 2.45 0 0 1-1.94 1.165c-.62 0-1.146-.491-1.569-1.465s-.605-2.74-.605-5.238q0-3.935.664-5.385a2.14 2.14 0 0 1 1.94-1.465 2.57 2.57 0 0 1 1.51.579q.353.269.664.586zm18.15-11.274a8 8 0 0 0-3.648-.784 7.27 7.27 0 0 0-3.713.93 6.4 6.4 0 0 0-2.495 2.674 8.9 8.9 0 0 0-.897 4.11 7.72 7.72 0 0 0 2.057 5.677q2.057 2.03 5.77 2.037c.99.02 1.972-.191 2.867-.615a5.07 5.07 0 0 0 1.948-1.685c.456-.644.71-1.409.73-2.198h-.73a3.35 3.35 0 0 1-.584 1.831 4.1 4.1 0 0 1-1.539 1.429c-.64.35-1.358.53-2.086.52a2.87 2.87 0 0 1-2.546-1.421q-.934-1.466-.927-4.835a43 43 0 0 0 6.143-.44c.963-.11 1.867-.256 2.699-.432l.138-.498a4.5 4.5 0 0 0 .146-1.253 5.14 5.14 0 0 0-.868-2.93 5.8 5.8 0 0 0-2.465-2.117m-1.62 5.999q-.122.495-.146.638a7 7 0 0 1-1.043.146c-1 .109-2.007.157-3.013.147 0-4.755.773-7.099 2.189-7.136q.897.002 1.532 1.136a7.35 7.35 0 0 1 .642 3.524 8 8 0 0 1-.16 1.523zm16.479-6.52a5.05 5.05 0 0 0-3.246 1.165c-.409.337-.77.729-1.072 1.165a4 4 0 0 0-.635-1.077 3.45 3.45 0 0 0-2.7-1.106h-2.61v.44l1.743.432v12.813l-1.744.439v.432h8.119v-.432l-1.736-.439V154.92c.258-.427.57-.818.927-1.165.35-.363.768-.653 1.23-.852.462-.2.959-.307 1.461-.313v4.073l.351.088q.402.056.809.059a2.03 2.03 0 0 0 1.596-.595 2.06 2.06 0 0 0 .593-1.603 2.58 2.58 0 0 0-.781-2.037 3.2 3.2 0 0 0-2.305-.718m11.19-.285a7.95 7.95 0 0 0-4.542 1.225 8 8 0 0 0-3.067 3.581 8.04 8.04 0 0 0 1.673 8.87 7.96 7.96 0 0 0 8.832 1.68 8 8 0 0 0 3.566-3.08 8.04 8.04 0 0 0 1.22-4.562 7.18 7.18 0 0 0-2.061-5.644 7.12 7.12 0 0 0-5.621-2.07m1.941 13.186c-.525 1.085-1.175 1.627-1.941 1.627s-1.459-.542-1.977-1.627c-.517-1.084-.78-2.93-.78-5.501s.263-4.396.78-5.502c.518-1.106 1.204-1.634 1.977-1.634s1.416.542 1.941 1.634.81 2.93.81 5.502-.27 4.439-.81 5.531zm16.048-12.314 1.737.432v10.776a7.4 7.4 0 0 1-.664 1.165 2.45 2.45 0 0 1-1.941 1.165 1.88 1.88 0 0 1-1.539-.96 5.3 5.3 0 0 1-.635-2.828v-7.567c0-1.751-.875-2.623-2.611-2.623h-3.772v.44l1.744.432v9.318c.007.832.261 1.643.729 2.33a5.45 5.45 0 0 0 1.999 1.802 6.3 6.3 0 0 0 2.918.674 4.4 4.4 0 0 0 3.246-1.311 6.6 6.6 0 0 0 .956-1.312c.156.449.413.855.751 1.187a4.23 4.23 0 0 0 3.217 1.165h.292v-13.853l1.744-.432v-.44h-8.171zm21.841 8.292a5.7 5.7 0 0 0-1.568-1.465 22 22 0 0 0-2.437-1.399 17.4 17.4 0 0 1-2.808-1.692 2.3 2.3 0 0 1-.927-1.861 2.06 2.06 0 0 1 .547-1.465 1.8 1.8 0 0 1 1.335-.579c1.335 0 2.481.733 3.451 2.271a10.6 10.6 0 0 1 1.072 2.242h1.16v-4.952h-.729c-.059 0-.256.131-.584.322a4.5 4.5 0 0 0-1.014.989 7 7 0 0 0-1.101-.769 5.27 5.27 0 0 0-2.838-.814c-2.072 0-3.604.367-4.611 1.107a3.34 3.34 0 0 0-1.458 2.82 3.86 3.86 0 0 0 .663 2.242 7 7 0 0 0 1.656 1.575c.657.403 1.51.872 2.553 1.392a18 18 0 0 1 2.663 1.633 1.9 1.9 0 0 1 .875 1.605 2.3 2.3 0 0 1-.641 1.743 2.55 2.55 0 0 1-1.824.579 4.53 4.53 0 0 1-3.83-2.242 8.3 8.3 0 0 1-1.101-2.271h-1.16v4.953h.729q.302-.137.576-.323a3.7 3.7 0 0 0 1.014-.989c.336.325.717.598 1.131.813a6.55 6.55 0 0 0 3.217.792q6.674 0 6.668-4.22a3.3 3.3 0 0 0-.679-2.037"/><path fill="#F08D5C" fill-rule="evenodd" d="M105.914 97.822V53.904a28.1 28.1 0 0 0-8.334-19.531A27.86 27.86 0 0 0 78 26.32a27.86 27.86 0 0 0-19.58 8.052 28.1 28.1 0 0 0-8.334 19.53V97.86l27.918-33.831z" clip-rule="evenodd"/></g><defs><clipPath id="a"><path fill="#fff" d="M0 0h156v167H0z"/></clipPath></defs></svg>